custom-analysis
version=1
nRows=5
nColumns=42
inDegrees=no

This file contains tibia displacement and acting force.

Units are S.I. units (seconds, meters, Newtons, ...)
Angles are in degrees.

endheader
time	APT	SIT	knee_angle	aACL_R_force	pACL_R_force	aPCL_R_force	pPCL_R_force	aMCL_R_force	mMCL_R_force	pMCL_R_force	aLCL_R_force	mLCL_R_force	pLCL_R_force	aACL_R_length	pACL_R_length	aPCL_R_length	pPCL_R_length	aMCL_R_length	mMCL_R_length	pMCL_R_length	aLCL_R_length	mLCL_R_length	pLCL_R_length	aACL_R_strain	pACL_R_strain	aPCL_R_strain	pPCL_R_strain	aMCL_R_strain	mMCL_R_strain	pMCL_R_strain	aLCL_R_strain	mLCL_R_strain	pLCL_R_strain	femur_lat_meniscii_force_r	femur_lat_meniscii_torque_r	femur_med_meniscii_force_r	femur_med_meniscii_torque_r	femur_lat_tibia_force_r	femur_lat_tibia_torque_r	femur_med_tibia_force_r	femur_med_tibia_torque_r
      0.49413205	      0.00148102	      0.00032203	      1.66574369	     30.96648268	     55.59521851	      0.00000000	      0.00000000	      0.00000000	      1.87873980	     13.04160635	     -0.19259935	      0.00000000	      0.44511161	      0.03300067	      0.02730008	      0.02844909	      0.02890688	      0.05605473	      0.06094311	      0.06331395	      0.05624187	      0.05475252	      0.05293297	      0.06434898	      0.07655685	     -0.08509999	     -0.03924903	     -0.03398883	      0.01922638	      0.04258250	      0.00472824	     -0.02780743	      0.01127708	     89.66457806	     16.50657823	     87.96075620	     14.00925949	      0.00000000	      0.00000000	      0.00000000	      0.00000000
      0.49697807	      0.00148193	      0.00032300	      1.66574369	     31.24722790	     55.87798732	      0.00000000	      0.00000000	      0.00000000	      2.64608975	     13.78915925	      0.91036433	      0.00000000	      1.54870571	      0.03300052	      0.02729998	      0.02844786	      0.02890560	      0.05605314	      0.06094152	      0.06331246	      0.05624168	      0.05475239	      0.05293286	      0.06434397	      0.07655263	     -0.08513942	     -0.03929153	     -0.03401628	      0.01919982	      0.04255800	      0.00472479	     -0.02780978	      0.01127499	     87.77599021	     16.13875647	     86.43802569	     13.75068071	      0.00000000	      0.00000000	      0.00000000	      0.00000000
      0.49982409	      0.00148244	      0.00032221	      1.66574369	     31.01842167	     55.67263909	      0.00000000	      0.00000000	      0.00000000	      1.91048634	     13.06852566	     -0.08834530	      0.00000000	      0.55649273	      0.03300152	      0.02730100	      0.02844839	      0.02890610	      0.05605319	      0.06094160	      0.06331262	      0.05624341	      0.05475419	      0.05293468	      0.06437629	      0.07659308	     -0.08512244	     -0.03927493	     -0.03401530	      0.01920105	      0.04256053	      0.00475569	     -0.02777794	      0.01130972	     89.44921806	     16.46517880	     88.20231913	     14.04319592	      0.00000000	      0.00000000	      0.00000000	      0.00000000
      0.50267010	      0.00148346	      0.00032306	      1.66574369	     31.27093941	     55.93017922	      0.00000000	      0.00000000	      0.00000000	      2.58944515	     13.72906782	      0.90603755	      0.00000000	      1.55153579	      0.03300148	      0.02730100	      0.02844726	      0.02890492	      0.05605166	      0.06094006	      0.06331119	      0.05624345	      0.05475430	      0.05293482	      0.06437508	      0.07659319	     -0.08515876	     -0.03931430	     -0.03404181	      0.01917538	      0.04253708	      0.00475647	     -0.02777591	      0.01131242	     87.72901283	     16.14423860	     86.86429881	     13.81401780	      0.00000000	      0.00000000	      0.00000000	      0.00000000
      0.50551612	      0.00148411	      0.00032235	      1.66574369	     31.06536353	     55.74796919	      0.00000000	      0.00000000	      0.00000000	      1.91719478	     13.07028605	      0.00365074	      0.00000000	      0.65602647	      0.03300248	      0.02730202	      0.02844771	      0.02890533	      0.05605158	      0.06094000	      0.06331122	      0.05624524	      0.05475616	      0.05293671	      0.06440730	      0.07663340	     -0.08514447	     -0.03930072	     -0.03404319	      0.01917428	      0.04253754	      0.00478839	     -0.02774289	      0.01134848	     89.23496051	     16.43994623	     88.48223362	     14.05735807	      0.00000000	      0.00000000	      0.00000000	      0.00000000
